<?xml version="1.0" standalone="no"?>
<!DOCTYPE svg PUBLIC "-//W3C//DTD SVG 20010904//EN"
 "http://www.w3.org/TR/2001/REC-SVG-20010904/DTD/svg10.dtd">
<svg version="1.0" xmlns="http://www.w3.org/2000/svg"
 width="288.000000pt" height="288.000000pt" viewBox="0 0 288.000000 288.000000"
 preserveAspectRatio="xMidYMid meet">
<metadata>
Created by potrace 1.11, written by Peter Selinger 2001-2013
</metadata>
<g transform="translate(0.000000,288.000000) scale(0.100000,-0.100000)"
fill="#000000" stroke="none">
<path d="M1093 2858 c-12 -13 -23 -36 -26 -53 -13 -84 -22 -115 -48 -173 -51
-115 -178 -208 -317 -234 -54 -10 -66 -9 -148 18 -52 17 -110 28 -141 28 -44
-1 -55 -5 -76 -30 -14 -16 -33 -44 -43 -64 -11 -19 -21 -37 -24 -40 -5 -5 -21
-33 -41 -70 -31 -57 -153 -267 -162 -278 -25 -31 -12 -182 14 -166 5 3 9 1 9
-3 0 -5 18 -22 40 -39 37 -27 109 -114 95 -114 -4 0 0 -7 8 -15 9 -8 25 -45
36 -82 22 -73 22 -165 -1 -207 -7 -11 -13 -27 -14 -34 -8 -45 -76 -130 -156
-195 -47 -38 -48 -39 -48 -97 0 -43 6 -69 22 -97 13 -21 30 -50 38 -66 8 -15
44 -78 79 -140 35 -61 73 -128 84 -147 26 -46 59 -94 69 -98 4 -2 8 -10 8 -17
0 -20 123 -12 174 10 84 36 158 42 227 20 70 -23 152 -70 189 -107 60 -59 113
-176 124 -272 4 -33 13 -56 30 -71 23 -21 27 -22 349 -21 319 1 327 2 348 22
11 12 23 39 26 60 19 158 93 280 212 345 121 67 188 74 308 33 43 -15 101 -27
128 -28 43 -1 53 2 75 26 19 22 205 337 276 468 8 14 14 50 14 81 0 61 4 55
-101 145 -37 32 -67 74 -94 130 -30 63 -39 104 -38 170 1 54 45 181 69 200 8
6 14 16 14 22 0 12 135 133 142 127 5 -6 6 2 8 72 2 46 -4 63 -43 130 -24 43
-59 105 -77 138 -18 33 -39 69 -47 81 -7 11 -10 24 -6 27 3 4 1 7 -5 7 -7 0
-20 17 -30 38 -9 20 -20 39 -24 42 -3 3 -8 12 -10 20 -2 8 -11 23 -20 34 -10
10 -14 24 -11 30 3 6 2 8 -2 3 -5 -4 -17 0 -26 9 -19 17 -129 27 -129 12 0 -5
-8 -8 -18 -8 -10 0 -22 -4 -28 -10 -5 -5 -41 -16 -80 -24 -60 -13 -79 -13
-120 -2 -72 19 -165 69 -212 114 -45 44 -111 172 -117 230 -2 20 -4 37 -5 37
-1 0 -4 11 -6 25 -2 13 -14 35 -26 47 l-21 23 -327 0 c-326 0 -327 0 -347 -22z
m633 -133 c7 -33 10 -63 8 -67 -3 -5 0 -8 5 -8 6 0 11 -9 11 -19 0 -28 64
-134 108 -179 101 -104 236 -159 382 -155 50 2 149 26 194 49 16 8 30 13 31
12 6 -8 123 -215 128 -228 4 -8 17 -31 28 -50 39 -63 68 -117 66 -121 -1 -2 0
-3 3 -1 2 2 14 -16 26 -39 l21 -42 -32 -29 c-18 -15 -37 -28 -43 -28 -6 0 -14
-9 -17 -20 -3 -11 -14 -20 -22 -20 -9 0 -14 -3 -10 -6 3 -3 -3 -16 -14 -28
-19 -20 -70 -109 -75 -131 -1 -5 -9 -37 -17 -70 -20 -84 -12 -196 19 -276 30
-75 79 -143 147 -204 l66 -58 -19 -28 c-11 -15 -20 -29 -20 -32 0 -3 -23 -45
-51 -94 -29 -48 -63 -108 -77 -133 -29 -53 -104 -184 -107 -188 -1 -1 -23 6
-49 17 -25 11 -46 18 -46 15 0 -3 -6 -2 -12 3 -41 25 -212 25 -288 0 -143 -48
-265 -160 -313 -289 -19 -48 -23 -67 -31 -132 -3 -21 -7 -41 -10 -44 -4 -4
-388 -6 -527 -3 -24 1 -27 6 -32 49 -12 99 -72 234 -120 270 -9 7 -14 19 -11
25 4 7 4 9 -1 5 -4 -4 -26 9 -49 28 -124 107 -316 141 -473 83 -32 -11 -65
-23 -73 -26 -10 -3 -21 6 -30 24 -8 15 -19 31 -25 35 -5 4 -6 8 -1 8 5 0 2 8
-6 18 -8 9 -29 42 -45 72 -17 30 -44 79 -62 108 -17 29 -31 55 -31 58 0 3 -9
19 -21 35 -11 16 -17 29 -12 29 4 0 3 4 -4 8 -6 4 -13 14 -15 21 -2 8 -12 23
-22 34 -19 20 -19 20 5 39 13 11 36 30 51 43 14 13 30 20 34 17 4 -4 4 -2 1 5
-4 6 4 20 18 31 14 11 25 23 25 26 0 6 50 86 60 96 3 3 6 12 7 20 1 8 8 40 16
70 30 120 4 276 -63 378 -32 50 -115 142 -127 142 -2 0 -11 7 -19 15 -13 13
-11 23 22 82 21 38 43 71 48 75 6 4 8 8 3 8 -8 0 42 81 58 92 5 4 6 8 2 8 -8
0 28 67 43 80 3 3 18 31 35 63 16 31 33 57 38 57 4 0 5 5 2 10 -9 14 -5 13 82
-16 75 -26 200 -37 258 -22 80 20 118 36 177 74 78 52 135 113 169 181 13 26
27 50 32 51 4 2 5 8 2 13 -3 5 -1 17 4 27 11 21 19 62 20 107 l1 30 277 0 277
0 12 -60z"/>
<path d="M1888 1928 c-141 -140 -194 -187 -236 -206 -113 -51 -292 -60 -402
-20 -69 25 -126 67 -203 147 -43 45 -83 81 -89 81 -6 0 -8 3 -5 6 4 4 -22 36
-56 72 -63 65 -114 97 -141 86 -17 -7 -33 -49 -42 -114 -3 -25 -8 -56 -10 -70
-4 -26 -22 -145 -29 -190 -2 -14 -8 -54 -14 -90 -6 -36 -13 -90 -16 -120 -3
-30 -7 -62 -9 -70 -3 -8 -7 -37 -11 -65 -3 -27 -10 -77 -16 -110 -5 -33 -12
-90 -15 -126 -7 -78 7 -109 59 -130 46 -17 261 -122 267 -129 3 -3 25 -18 50
-32 56 -32 242 -170 293 -217 144 -133 208 -150 288 -79 120 106 366 288 389
288 6 0 13 6 16 13 3 8 10 14 17 14 7 0 30 11 52 24 22 14 55 31 73 38 17 8
32 17 32 21 0 3 6 7 13 7 6 0 42 14 79 31 66 30 99 66 93 102 -2 16 -16 120
-21 160 -3 32 -15 107 -19 128 -1 10 -6 40 -9 67 -7 50 -9 66 -20 140 -4 22
-9 56 -11 76 -3 20 -12 81 -20 135 -9 55 -18 113 -20 129 -15 112 -24 139 -59
167 -43 35 -58 26 -248 -164z m-841 -697 c73 -34 164 -152 132 -171 -16 -10
-82 -3 -129 13 -71 24 -172 147 -138 168 23 15 91 9 135 -10z m941 0 c12 -7
11 -14 -2 -38 -8 -17 -13 -33 -11 -37 3 -3 2 -4 -1 -2 -3 2 -18 -9 -34 -26
-40 -41 -126 -75 -179 -70 -37 4 -41 6 -35 26 13 43 70 106 118 131 50 25 118
33 144 16z m-483 -441 c70 -40 82 -55 63 -78 -8 -9 -26 -30 -39 -45 -32 -38
-69 -57 -94 -47 -11 4 -41 31 -68 58 l-47 50 52 38 c29 21 55 42 56 46 6 14
23 9 77 -22z"/>
</g>
</svg>
